<svg width="32" height="32" viewBox="0 0 32 32" fill="none" xmlns="http://www.w3.org/2000/svg">
    <style>
        @media (prefers-color-scheme: dark) {
            .letter {
                fill: white;
            }
        }
    </style>
    <path d="M0 14.3995V5.55083H2.03951L6.02986 10.9865C5.98764 10.6157 5.94963 10.2701 5.91585 9.94989C5.89052 9.62123 5.87363 9.27149 5.86518 8.90069C5.85674 8.52989 5.85252 8.1001 5.85252 7.61131V5.55083H8.06938V14.3995H6.00453L2.06485 9.07767C2.10707 9.44847 2.13663 9.76028 2.15352 10.0131C2.17886 10.2659 2.19575 10.5103 2.20419 10.7463C2.21264 10.9822 2.21686 11.2561 2.21686 11.5679V14.3995H0Z" fill="#973EDF"/>
    <path d="M14.3221 14.5259C13.6549 14.5259 13.0384 14.4122 12.4726 14.1846C11.9068 13.9571 11.417 13.6368 11.0032 13.2239C10.5893 12.811 10.2684 12.3264 10.0404 11.7702C9.81238 11.214 9.69837 10.603 9.69837 9.93725C9.69837 9.2715 9.81238 8.66051 10.0404 8.10431C10.2684 7.53968 10.5893 7.0509 11.0032 6.63796C11.417 6.22502 11.9068 5.90478 12.4726 5.67724C13.0384 5.44971 13.6549 5.33594 14.3221 5.33594C14.9977 5.33594 15.6184 5.44971 16.1843 5.67724C16.7501 5.90478 17.2399 6.22502 17.6537 6.63796C18.0676 7.0509 18.3885 7.53968 18.6165 8.10431C18.8445 8.66051 18.9585 9.2715 18.9585 9.93725C18.9585 10.5946 18.8445 11.2056 18.6165 11.7702C18.3885 12.3264 18.0676 12.811 17.6537 13.2239C17.2399 13.6368 16.7501 13.9571 16.1843 14.1846C15.6184 14.4122 14.9977 14.5259 14.3221 14.5259ZM14.3221 12.4022C14.7697 12.4022 15.1666 12.2969 15.5129 12.0862C15.8591 11.8671 16.1336 11.5722 16.3363 11.2014C16.539 10.8305 16.6403 10.4092 16.6403 9.93725C16.6403 9.4569 16.539 9.03132 16.3363 8.66051C16.1336 8.28971 15.8591 7.99897 15.5129 7.78829C15.1666 7.5776 14.7697 7.47226 14.3221 7.47226C13.8745 7.47226 13.4776 7.5776 13.1313 7.78829C12.7851 7.99897 12.5106 8.28971 12.3079 8.66051C12.1137 9.03132 12.0166 9.4569 12.0166 9.93725C12.0166 10.4092 12.1137 10.8305 12.3079 11.2014C12.5106 11.5722 12.7851 11.8671 13.1313 12.0862C13.4776 12.2969 13.8745 12.4022 14.3221 12.4022Z" fill="#973EDF"/>
    <path d="M22.0811 14.3995L19.4589 5.55083H21.7771L23.0312 10.0637C23.0903 10.2743 23.141 10.485 23.1832 10.6957C23.2255 10.9064 23.2635 11.1044 23.2972 11.2898C23.331 11.0876 23.369 10.8895 23.4112 10.6957C23.4619 10.4935 23.5253 10.2786 23.6013 10.051L24.868 6.63796H26.6669L27.921 10.051C27.997 10.2701 28.0603 10.4766 28.111 10.6704C28.1701 10.8558 28.2208 11.037 28.263 11.214C28.2799 11.0539 28.3052 10.8811 28.339 10.6957C28.3728 10.5103 28.4235 10.2954 28.491 10.051L29.7451 5.55083H32L29.3524 14.3995H27.6043L25.6788 9.72236L23.918 14.3995H22.0811Z" fill="#973EDF"/>
    <path d="M0 26.0004V18.3807H0.791127L5.6148 24.7051C5.60015 24.4874 5.5855 24.2298 5.57085 23.9322C5.5562 23.6274 5.54521 23.3118 5.53788 22.9852C5.53056 22.6586 5.52323 22.3393 5.51591 22.0273C5.51591 21.708 5.51591 21.4214 5.51591 21.1674V18.3807H6.38395V26.0004H5.58184L0.747175 19.7305C0.776476 20.1659 0.79845 20.5796 0.8131 20.9714C0.835076 21.3633 0.849729 21.7007 0.857054 21.9838C0.864379 22.2595 0.868042 22.4446 0.868042 22.5389V26.0004H0Z" fill="#202020" class="letter"/>
    <path d="M10.8572 26.1093C10.2932 26.1093 9.78772 25.9823 9.34088 25.7283C8.90137 25.4671 8.55342 25.1151 8.29704 24.6724C8.04065 24.2225 7.91246 23.7109 7.91246 23.1376C7.91246 22.5716 8.04065 22.0672 8.29704 21.6245C8.55342 21.1746 8.90137 20.8227 9.34088 20.5687C9.78772 20.3147 10.2932 20.1877 10.8572 20.1877C11.4213 20.1877 11.923 20.3147 12.3625 20.5687C12.8094 20.8227 13.1573 21.1746 13.4064 21.6245C13.6628 22.0672 13.791 22.5716 13.791 23.1376C13.791 23.7109 13.6628 24.2225 13.4064 24.6724C13.1573 25.1151 12.8094 25.4671 12.3625 25.7283C11.923 25.9823 11.4213 26.1093 10.8572 26.1093ZM10.8572 25.3255C11.2601 25.3255 11.6154 25.2312 11.923 25.0425C12.238 24.8539 12.4834 24.5962 12.6592 24.2697C12.835 23.9359 12.9229 23.5585 12.9229 23.1376C12.9229 22.7167 12.835 22.3466 12.6592 22.0273C12.4834 21.7007 12.238 21.4431 11.923 21.2544C11.6154 21.0658 11.2601 20.9714 10.8572 20.9714C10.4543 20.9714 10.0954 21.0658 9.7804 21.2544C9.46541 21.4431 9.22002 21.7007 9.04422 22.0273C8.86841 22.3539 8.78051 22.724 8.78051 23.1376C8.78051 23.5585 8.86841 23.9359 9.04422 24.2697C9.22002 24.5962 9.46541 24.8539 9.7804 25.0425C10.0954 25.2312 10.4543 25.3255 10.8572 25.3255Z" fill="#202020" class="letter"/>
    <path d="M17.3337 26.1093C16.8063 26.1093 16.3338 25.9823 15.9163 25.7283C15.506 25.4743 15.1801 25.126 14.9383 24.6833C14.7039 24.2334 14.5867 23.7218 14.5867 23.1485C14.5867 22.5825 14.7076 22.0781 14.9493 21.6354C15.1911 21.1855 15.517 20.8335 15.9273 20.5796C16.3375 20.3183 16.799 20.1877 17.3117 20.1877C17.7512 20.1877 18.1541 20.2893 18.5204 20.4925C18.894 20.6884 19.1833 20.9315 19.3884 21.2218V17.9453H20.2235V26.0004H19.3994L19.3774 25.0425C19.1943 25.3401 18.916 25.5941 18.5424 25.8045C18.1688 26.0077 17.7659 26.1093 17.3337 26.1093ZM17.4436 25.3473C17.8245 25.3473 18.1651 25.253 18.4655 25.0643C18.7658 24.8756 19.0002 24.618 19.1687 24.2914C19.3445 23.9576 19.4324 23.5766 19.4324 23.1485C19.4324 22.7203 19.3445 22.343 19.1687 22.0164C19.0002 21.6826 18.7658 21.4214 18.4655 21.2327C18.1651 21.044 17.8245 20.9497 17.4436 20.9497C17.0553 20.9497 16.7111 21.044 16.4107 21.2327C16.1104 21.4214 15.876 21.6826 15.7075 22.0164C15.539 22.343 15.4548 22.7203 15.4548 23.1485C15.4548 23.5694 15.539 23.9467 15.7075 24.2806C15.876 24.6144 16.1104 24.8756 16.4107 25.0643C16.7111 25.253 17.0553 25.3473 17.4436 25.3473Z" fill="#202020" class="letter"/>
    <path d="M24.3667 26.1093C23.788 26.1093 23.2752 25.9859 22.8284 25.7392C22.3889 25.4925 22.0446 25.1478 21.7955 24.7051C21.5465 24.2624 21.422 23.7544 21.422 23.1811C21.422 22.6006 21.5428 22.0854 21.7846 21.6354C22.0263 21.1855 22.3633 20.8335 22.7954 20.5796C23.2276 20.3183 23.7221 20.1877 24.2788 20.1877C24.7916 20.1877 25.2421 20.3074 25.6303 20.5469C26.0259 20.7791 26.3299 21.1021 26.5423 21.5157C26.7547 21.9221 26.8536 22.3938 26.839 22.9308L26.828 23.3118H22.279C22.3156 23.9286 22.5281 24.4184 22.9163 24.7813C23.3045 25.1441 23.821 25.3255 24.4656 25.3255C24.744 25.3255 25.015 25.282 25.2787 25.1949C25.5497 25.1006 25.8464 24.9192 26.1687 24.6507L26.5972 25.2494C26.3409 25.4961 26.0149 25.7029 25.6193 25.8698C25.2238 26.0295 24.8062 26.1093 24.3667 26.1093ZM24.2678 20.9714C23.7404 20.9714 23.3045 21.1129 22.9603 21.396C22.616 21.6717 22.3999 22.0781 22.312 22.6151H25.9929V22.5498C25.9783 22.2885 25.9013 22.0382 25.7622 21.7987C25.623 21.552 25.4252 21.3524 25.1688 21.2C24.9198 21.0476 24.6194 20.9714 24.2678 20.9714Z" fill="#202020" class="letter"/>
    <path d="M29.9098 26.1093C29.4117 26.1093 28.9685 26.0222 28.5803 25.848C28.1994 25.6666 27.8917 25.4235 27.6573 25.1187L28.2507 24.6071C28.6682 25.1224 29.2432 25.38 29.9758 25.38C30.3274 25.38 30.613 25.3038 30.8328 25.1514C31.0599 24.9917 31.1734 24.774 31.1734 24.4983C31.1734 24.266 31.0709 24.0737 30.8658 23.9213C30.7705 23.8488 30.635 23.7798 30.4592 23.7145C30.2834 23.6492 30.071 23.5803 29.8219 23.5077C29.4117 23.3988 29.0711 23.2827 28.8 23.1594C28.529 23.036 28.3166 22.8945 28.1628 22.7348C27.943 22.4881 27.8331 22.1797 27.8331 21.8096C27.8331 21.4975 27.9174 21.2218 28.0858 20.9823C28.2616 20.7356 28.4997 20.5433 28.8 20.4054C29.1077 20.2603 29.452 20.1877 29.8329 20.1877C30.2431 20.1877 30.6387 20.2748 31.0196 20.4489C31.4078 20.6158 31.7228 20.8335 31.9646 21.1021L31.4481 21.6572C31.2284 21.4322 30.983 21.2508 30.7119 21.1129C30.4482 20.9751 30.1699 20.9061 29.8769 20.9061C29.5179 20.9061 29.2286 20.9859 29.0088 21.1456C28.7964 21.3052 28.6902 21.5157 28.6902 21.7769C28.6902 21.9874 28.7744 22.1616 28.9429 22.2994C29.0454 22.3793 29.1883 22.4555 29.3714 22.528C29.5619 22.5933 29.7963 22.6623 30.0746 22.7348C30.3896 22.8219 30.6607 22.9126 30.8877 23.007C31.1148 23.0941 31.3016 23.1993 31.4481 23.3227C31.8144 23.5984 31.9975 23.9758 31.9975 24.4547C31.9975 24.774 31.9059 25.0607 31.7228 25.3147C31.5397 25.5614 31.2906 25.7573 30.9756 25.9025C30.6607 26.0403 30.3054 26.1093 29.9098 26.1093Z" fill="#202020" class="letter"/>
</svg>
