<svg width="360" height="120" viewBox="0 0 360 120" fill="none" xmlns="http://www.w3.org/2000/svg">
    <rect width="360" height="120" rx="8" fill="white"/>
    <path d="M45 78.1171V43.9518H52.858L68.2324 64.9391C68.0697 63.5074 67.9233 62.1733 67.7931 60.9368C67.6955 59.6678 67.6304 58.3175 67.5979 56.8858C67.5654 55.4541 67.5491 53.7947 67.5491 51.9074V43.9518H76.0904V78.1171H68.1348L52.9556 57.5691C53.1183 59.0008 53.2322 60.2047 53.2973 61.1809C53.3949 62.157 53.46 63.1006 53.4925 64.0117C53.5251 64.9228 53.5413 65.9803 53.5413 67.1842V78.1171H45Z" fill="#202020"/>
    <path d="M100.182 78.6052C97.611 78.6052 95.2357 78.1659 93.0556 77.2874C90.8756 76.4088 88.9883 75.1724 87.3939 73.578C85.7996 71.9836 84.5631 70.1127 83.6846 67.9651C82.806 65.8176 82.3668 63.4586 82.3668 60.888C82.3668 58.3175 82.806 55.9585 83.6846 53.8109C84.5631 51.6309 85.7996 49.7436 87.3939 48.1492C88.9883 46.5549 90.8756 45.3184 93.0556 44.4399C95.2357 43.5613 97.611 43.1221 100.182 43.1221C102.785 43.1221 105.176 43.5613 107.356 44.4399C109.536 45.3184 111.424 46.5549 113.018 48.1492C114.612 49.7436 115.849 51.6309 116.727 53.8109C117.606 55.9585 118.045 58.3175 118.045 60.888C118.045 63.426 117.606 65.785 116.727 67.9651C115.849 70.1127 114.612 71.9836 113.018 73.578C111.424 75.1724 109.536 76.4088 107.356 77.2874C105.176 78.1659 102.785 78.6052 100.182 78.6052ZM100.182 70.4055C101.906 70.4055 103.435 69.9988 104.769 69.1853C106.104 68.3393 107.161 67.2005 107.942 65.7688C108.723 64.3371 109.113 62.7102 109.113 60.888C109.113 59.0333 108.723 57.3901 107.942 55.9585C107.161 54.5268 106.104 53.4042 104.769 52.5907C103.435 51.7773 101.906 51.3705 100.182 51.3705C98.457 51.3705 96.9277 51.7773 95.5936 52.5907C94.2595 53.4042 93.202 54.5268 92.4211 55.9585C91.6727 57.3901 91.2986 59.0333 91.2986 60.888C91.2986 62.7102 91.6727 64.3371 92.4211 65.7688C93.202 67.2005 94.2595 68.3393 95.5936 69.1853C96.9277 69.9988 98.457 70.4055 100.182 70.4055Z" fill="#202020"/>
    <path d="M130.076 78.1171L119.973 43.9518H128.905L133.737 61.3761C133.964 62.1896 134.16 63.003 134.322 63.8165C134.485 64.6299 134.632 65.3946 134.762 66.1104C134.892 65.3295 135.038 64.5649 135.201 63.8165C135.396 63.0356 135.64 62.2058 135.933 61.3273L140.814 48.1492H147.744L152.576 61.3273C152.869 62.1733 153.113 62.9705 153.309 63.7189C153.536 64.4347 153.732 65.1343 153.894 65.8176C153.959 65.1994 154.057 64.5323 154.187 63.8165C154.317 63.1006 154.512 62.2709 154.773 61.3273L159.605 43.9518H168.292L158.092 78.1171H151.356L143.938 60.0583L137.153 78.1171H130.076Z" fill="#202020"/>
    <path d="M172.867 78.1176V43.9523H176.381L197.808 72.3095C197.743 71.3333 197.678 70.1782 197.613 68.8442C197.548 67.4775 197.499 66.0621 197.466 64.5979C197.434 63.1337 197.401 61.702 197.369 60.3028C197.369 58.8711 197.369 57.5859 197.369 56.447V43.9523H201.224V78.1176H197.661L176.186 50.0044C176.316 51.9567 176.414 53.8114 176.479 55.5685C176.577 57.3256 176.642 58.8386 176.674 60.1076C176.707 61.3441 176.723 62.1738 176.723 62.5968V78.1176H172.867Z" fill="#202020"/>
    <path d="M221.094 78.6057C218.589 78.6057 216.344 78.0362 214.359 76.8974C212.407 75.726 210.861 74.1479 209.722 72.1631C208.583 70.1457 208.014 67.8517 208.014 65.2812C208.014 62.7432 208.583 60.4818 209.722 58.497C210.861 56.4796 212.407 54.9015 214.359 53.7626C216.344 52.6238 218.589 52.0544 221.094 52.0544C223.6 52.0544 225.829 52.6238 227.781 53.7626C229.766 54.9015 231.311 56.4796 232.418 58.497C233.557 60.4818 234.126 62.7432 234.126 65.2812C234.126 67.8517 233.557 70.1457 232.418 72.1631C231.311 74.1479 229.766 75.726 227.781 76.8974C225.829 78.0362 223.6 78.6057 221.094 78.6057ZM221.094 75.0915C222.884 75.0915 224.462 74.6685 225.829 73.8225C227.228 72.9765 228.318 71.8214 229.099 70.3572C229.88 68.8604 230.27 67.1684 230.27 65.2812C230.27 63.394 229.88 61.7345 229.099 60.3028C228.318 58.8386 227.228 57.6835 225.829 56.8375C224.462 55.9915 222.884 55.5685 221.094 55.5685C219.305 55.5685 217.71 55.9915 216.311 56.8375C214.912 57.6835 213.822 58.8386 213.041 60.3028C212.26 61.7671 211.87 63.4265 211.87 65.2812C211.87 67.1684 212.26 68.8604 213.041 70.3572C213.822 71.8214 214.912 72.9765 216.311 73.8225C217.71 74.6685 219.305 75.0915 221.094 75.0915Z" fill="#202020"/>
    <path d="M249.863 78.6057C247.52 78.6057 245.421 78.0362 243.566 76.8974C241.744 75.7586 240.296 74.1967 239.223 72.2119C238.181 70.1945 237.661 67.9005 237.661 65.33C237.661 62.792 238.198 60.5306 239.271 58.5458C240.345 56.5284 241.793 54.9503 243.615 53.8114C245.437 52.64 247.487 52.0544 249.765 52.0544C251.717 52.0544 253.507 52.5099 255.134 53.421C256.793 54.2995 258.079 55.3895 258.99 56.6911V42H262.699V78.1176H259.038L258.941 73.8225C258.127 75.1566 256.891 76.2954 255.231 77.2391C253.572 78.1501 251.782 78.6057 249.863 78.6057ZM250.351 75.1891C252.043 75.1891 253.556 74.7661 254.89 73.9201C256.224 73.0741 257.265 71.919 258.014 70.4548C258.794 68.958 259.185 67.2498 259.185 65.33C259.185 63.4102 258.794 61.7183 258.014 60.254C257.265 58.7573 256.224 57.5859 254.89 56.7399C253.556 55.8939 252.043 55.4709 250.351 55.4709C248.626 55.4709 247.097 55.8939 245.763 56.7399C244.429 57.5859 243.388 58.7573 242.639 60.254C241.891 61.7183 241.517 63.4102 241.517 65.33C241.517 67.2172 241.891 68.9092 242.639 70.406C243.388 71.9028 244.429 73.0741 245.763 73.9201C247.097 74.7661 248.626 75.1891 250.351 75.1891Z" fill="#202020"/>
    <path d="M281.103 78.6057C278.532 78.6057 276.255 78.0525 274.27 76.9462C272.318 75.8399 270.788 74.2943 269.682 72.3095C268.576 70.3247 268.022 68.047 268.022 65.4764C268.022 62.8734 268.559 60.5631 269.633 58.5458C270.707 56.5284 272.204 54.9503 274.123 53.8114C276.043 52.64 278.24 52.0544 280.712 52.0544C282.99 52.0544 284.991 52.5912 286.716 53.665C288.473 54.7062 289.823 56.1542 290.767 58.0089C291.71 59.831 292.15 61.946 292.085 64.3539L292.036 66.0621H271.829C271.992 68.8279 272.936 71.0242 274.66 72.6511C276.385 74.2781 278.679 75.0915 281.542 75.0915C282.779 75.0915 283.983 74.8963 285.154 74.5058C286.358 74.0828 287.676 73.2694 289.107 72.0655L291.011 74.7499C289.872 75.8562 288.424 76.7835 286.667 77.5319C284.91 78.2478 283.055 78.6057 281.103 78.6057ZM280.664 55.5685C278.321 55.5685 276.385 56.203 274.856 57.472C273.326 58.7085 272.366 60.5306 271.976 62.9384H288.326V62.6456C288.261 61.4742 287.92 60.3516 287.301 59.2779C286.683 58.1716 285.805 57.2768 284.666 56.5935C283.56 55.9102 282.226 55.5685 280.664 55.5685Z" fill="#202020"/>
    <path d="M305.725 78.6057C303.513 78.6057 301.544 78.2152 299.819 77.4343C298.127 76.6208 296.761 75.5308 295.72 74.1642L298.355 71.8702C300.21 74.1805 302.764 75.3356 306.018 75.3356C307.58 75.3356 308.849 74.9939 309.825 74.3106C310.834 73.5948 311.338 72.6186 311.338 71.3822C311.338 70.3409 310.883 69.4787 309.971 68.7954C309.548 68.47 308.947 68.1609 308.166 67.868C307.385 67.5752 306.441 67.266 305.335 66.9407C303.513 66.4526 302 65.932 300.796 65.3788C299.592 64.8257 298.648 64.1912 297.965 63.4753C296.989 62.369 296.501 60.9861 296.501 59.3267C296.501 57.9275 296.875 56.6911 297.623 55.6173C298.404 54.511 299.462 53.6487 300.796 53.0305C302.162 52.3797 303.692 52.0544 305.384 52.0544C307.206 52.0544 308.963 52.4448 310.655 53.2257C312.379 53.9741 313.778 54.9503 314.852 56.1542L312.558 58.6434C311.582 57.6347 310.492 56.8212 309.288 56.203C308.117 55.5848 306.88 55.2757 305.579 55.2757C303.984 55.2757 302.699 55.6336 301.723 56.3494C300.779 57.0653 300.308 58.0089 300.308 59.1803C300.308 60.1239 300.682 60.9048 301.43 61.523C301.886 61.8809 302.52 62.2226 303.334 62.548C304.18 62.8408 305.221 63.1499 306.457 63.4753C307.856 63.8658 309.06 64.2725 310.069 64.6955C311.078 65.086 311.908 65.5578 312.558 66.1109C314.185 67.3474 314.999 69.0394 314.999 71.1869C314.999 72.6186 314.592 73.9039 313.778 75.0427C312.965 76.149 311.859 77.0276 310.46 77.6783C309.06 78.2966 307.482 78.6057 305.725 78.6057Z" fill="#202020"/>
</svg>
