<svg width="360" height="120" viewBox="0 0 360 120" fill="none" xmlns="http://www.w3.org/2000/svg">
    <rect width="360" height="120" rx="8" fill="white"/>
    <path d="M45 78.1172V43.9518H52.858L68.2325 64.9391C68.0698 63.5074 67.9234 62.1734 67.7932 60.9369C67.6956 59.6679 67.6305 58.3175 67.598 56.8858C67.5654 55.4542 67.5492 53.7947 67.5492 51.9075V43.9518H76.0905V78.1172H68.1349L52.9557 57.5692C53.1184 59.0009 53.2322 60.2048 53.2973 61.1809C53.3949 62.1571 53.46 63.1007 53.4925 64.0118C53.5251 64.9229 53.5414 65.9804 53.5414 67.1843V78.1172H45Z" fill="#973EDF"/>
    <path d="M100.182 78.6053C97.6112 78.6053 95.2359 78.166 93.0558 77.2875C90.8757 76.4089 88.9885 75.1725 87.3941 73.5781C85.7997 71.9837 84.5632 70.1127 83.6847 67.9652C82.8062 65.8177 82.3669 63.4586 82.3669 60.8881C82.3669 58.3175 82.8062 55.9585 83.6847 53.811C84.5632 51.6309 85.7997 49.7437 87.3941 48.1493C88.9885 46.5549 90.8757 45.3184 93.0558 44.4399C95.2359 43.5613 97.6112 43.1221 100.182 43.1221C102.785 43.1221 105.176 43.5613 107.356 44.4399C109.537 45.3184 111.424 46.5549 113.018 48.1493C114.613 49.7437 115.849 51.6309 116.728 53.811C117.606 55.9585 118.045 58.3175 118.045 60.8881C118.045 63.4261 117.606 65.7851 116.728 67.9652C115.849 70.1127 114.613 71.9837 113.018 73.5781C111.424 75.1725 109.537 76.4089 107.356 77.2875C105.176 78.166 102.785 78.6053 100.182 78.6053ZM100.182 70.4056C101.906 70.4056 103.436 69.9989 104.77 69.1854C106.104 68.3394 107.161 67.2006 107.942 65.7689C108.723 64.3372 109.114 62.7102 109.114 60.8881C109.114 59.0334 108.723 57.3902 107.942 55.9585C107.161 54.5268 106.104 53.4042 104.77 52.5908C103.436 51.7773 101.906 51.3706 100.182 51.3706C98.4572 51.3706 96.9279 51.7773 95.5938 52.5908C94.2597 53.4042 93.2022 54.5268 92.4213 55.9585C91.6729 57.3902 91.2987 59.0334 91.2987 60.8881C91.2987 62.7102 91.6729 64.3372 92.4213 65.7689C93.2022 67.2006 94.2597 68.3394 95.5938 69.1854C96.9279 69.9989 98.4572 70.4056 100.182 70.4056Z" fill="#973EDF"/>
    <path d="M130.076 78.1172L119.973 43.9518H128.905L133.737 61.3762C133.965 62.1896 134.16 63.0031 134.323 63.8165C134.485 64.63 134.632 65.3947 134.762 66.1105C134.892 65.3296 135.039 64.5649 135.201 63.8165C135.396 63.0356 135.641 62.2059 135.933 61.3274L140.814 48.1493H147.745L152.577 61.3274C152.87 62.1734 153.114 62.9705 153.309 63.7189C153.537 64.4348 153.732 65.1344 153.895 65.8177C153.96 65.1994 154.057 64.5324 154.187 63.8165C154.318 63.1007 154.513 62.271 154.773 61.3274L159.605 43.9518H168.293L158.092 78.1172H151.357L143.938 60.0584L137.154 78.1172H130.076Z" fill="#973EDF"/>
    <path d="M172.867 78.1177V43.9523H176.381L197.808 72.3096C197.743 71.3334 197.678 70.1783 197.613 68.8443C197.548 67.4776 197.499 66.0622 197.466 64.598C197.434 63.1337 197.401 61.7021 197.369 60.3029C197.369 58.8712 197.369 57.5859 197.369 56.4471V43.9523H201.224V78.1177H197.662L176.186 50.0045C176.316 51.9568 176.414 53.8115 176.479 55.5685C176.577 57.3256 176.642 58.8387 176.674 60.1077C176.707 61.3441 176.723 62.1739 176.723 62.5969V78.1177H172.867Z" fill="#202020"/>
    <path d="M221.095 78.6058C218.589 78.6058 216.344 78.0364 214.359 76.8975C212.407 75.7261 210.861 74.148 209.722 72.1632C208.584 70.1458 208.014 67.8518 208.014 65.2813C208.014 62.7433 208.584 60.4819 209.722 58.497C210.861 56.4796 212.407 54.9015 214.359 53.7627C216.344 52.6238 218.589 52.0544 221.095 52.0544C223.6 52.0544 225.829 52.6238 227.781 53.7627C229.766 54.9015 231.312 56.4796 232.418 58.497C233.557 60.4819 234.126 62.7433 234.126 65.2813C234.126 67.8518 233.557 70.1458 232.418 72.1632C231.312 74.148 229.766 75.7261 227.781 76.8975C225.829 78.0364 223.6 78.6058 221.095 78.6058ZM221.095 75.0916C222.884 75.0916 224.462 74.6686 225.829 73.8226C227.228 72.9766 228.318 71.8215 229.099 70.3573C229.88 68.8605 230.27 67.1685 230.27 65.2813C230.27 63.3941 229.88 61.7346 229.099 60.3029C228.318 58.8387 227.228 57.6836 225.829 56.8375C224.462 55.9915 222.884 55.5685 221.095 55.5685C219.305 55.5685 217.711 55.9915 216.311 56.8375C214.912 57.6836 213.822 58.8387 213.041 60.3029C212.26 61.7671 211.87 63.4266 211.87 65.2813C211.87 67.1685 212.26 68.8605 213.041 70.3573C213.822 71.8215 214.912 72.9766 216.311 73.8226C217.711 74.6686 219.305 75.0916 221.095 75.0916Z" fill="#202020"/>
    <path d="M249.863 78.6058C247.52 78.6058 245.421 78.0364 243.567 76.8975C241.745 75.7587 240.297 74.1968 239.223 72.212C238.182 70.1946 237.661 67.9006 237.661 65.3301C237.661 62.7921 238.198 60.5307 239.272 58.5458C240.345 56.5284 241.793 54.9503 243.616 53.8115C245.438 52.6401 247.488 52.0544 249.765 52.0544C251.718 52.0544 253.507 52.5099 255.134 53.421C256.794 54.2995 258.079 55.3896 258.99 56.6911V42H262.699V78.1177H259.039L258.941 73.8226C258.128 75.1567 256.891 76.2956 255.232 77.2392C253.572 78.1503 251.783 78.6058 249.863 78.6058ZM250.351 75.1893C252.043 75.1893 253.556 74.7663 254.89 73.9203C256.224 73.0743 257.265 71.9191 258.014 70.4549C258.795 68.9581 259.185 67.2499 259.185 65.3301C259.185 63.4103 258.795 61.7183 258.014 60.2541C257.265 58.7573 256.224 57.5859 254.89 56.7399C253.556 55.8939 252.043 55.4709 250.351 55.4709C248.626 55.4709 247.097 55.8939 245.763 56.7399C244.429 57.5859 243.388 58.7573 242.639 60.2541C241.891 61.7183 241.517 63.4103 241.517 65.3301C241.517 67.2173 241.891 68.9093 242.639 70.4061C243.388 71.9029 244.429 73.0743 245.763 73.9203C247.097 74.7663 248.626 75.1893 250.351 75.1893Z" fill="#202020"/>
    <path d="M281.103 78.6058C278.533 78.6058 276.255 78.0526 274.27 76.9463C272.318 75.84 270.789 74.2944 269.682 72.3096C268.576 70.3248 268.023 68.0471 268.023 65.4765C268.023 62.8734 268.56 60.5632 269.633 58.5458C270.707 56.5284 272.204 54.9503 274.124 53.8115C276.044 52.6401 278.24 52.0544 280.713 52.0544C282.991 52.0544 284.992 52.5913 286.716 53.665C288.473 54.7063 289.824 56.1542 290.767 58.0089C291.711 59.8311 292.15 61.9461 292.085 64.3539L292.036 66.0622H271.83C271.993 68.828 272.936 71.0243 274.661 72.6513C276.385 74.2782 278.679 75.0916 281.543 75.0916C282.779 75.0916 283.983 74.8964 285.154 74.5059C286.358 74.0829 287.676 73.2695 289.108 72.0656L291.011 74.75C289.872 75.8563 288.424 76.7836 286.667 77.532C284.91 78.2479 283.056 78.6058 281.103 78.6058ZM280.664 55.5685C278.321 55.5685 276.385 56.2031 274.856 57.4721C273.327 58.7085 272.367 60.5307 271.976 62.9385H288.327V62.6457C288.262 61.4743 287.92 60.3517 287.302 59.2779C286.684 58.1716 285.805 57.2768 284.666 56.5935C283.56 55.9102 282.226 55.5685 280.664 55.5685Z" fill="#202020"/>
    <path d="M305.726 78.6058C303.513 78.6058 301.544 78.2153 299.82 77.4344C298.128 76.6209 296.761 75.5309 295.72 74.1643L298.356 71.8703C300.21 74.1806 302.765 75.3357 306.018 75.3357C307.58 75.3357 308.849 74.994 309.825 74.3107C310.834 73.5949 311.339 72.6187 311.339 71.3823C311.339 70.341 310.883 69.4788 309.972 68.7954C309.549 68.4701 308.947 68.1609 308.166 67.8681C307.385 67.5753 306.441 67.2661 305.335 66.9407C303.513 66.4527 302 65.9321 300.796 65.3789C299.592 64.8257 298.649 64.1912 297.965 63.4754C296.989 62.3691 296.501 60.9862 296.501 59.3267C296.501 57.9276 296.875 56.6911 297.624 55.6174C298.404 54.511 299.462 53.6488 300.796 53.0305C302.163 52.3798 303.692 52.0544 305.384 52.0544C307.206 52.0544 308.963 52.4449 310.655 53.2258C312.38 53.9742 313.779 54.9503 314.853 56.1542L312.559 58.6434C311.583 57.6347 310.493 56.8213 309.289 56.203C308.117 55.5848 306.881 55.2757 305.579 55.2757C303.985 55.2757 302.7 55.6336 301.723 56.3495C300.78 57.0653 300.308 58.0089 300.308 59.1803C300.308 60.1239 300.682 60.9049 301.431 61.5231C301.886 61.881 302.521 62.2227 303.334 62.5481C304.18 62.8409 305.221 63.15 306.458 63.4754C307.857 63.8659 309.061 64.2726 310.07 64.6956C311.078 65.0861 311.908 65.5579 312.559 66.111C314.186 67.3475 314.999 69.0395 314.999 71.187C314.999 72.6187 314.592 73.904 313.779 75.0428C312.965 76.1491 311.859 77.0277 310.46 77.6785C309.061 78.2967 307.483 78.6058 305.726 78.6058Z" fill="#202020"/>
</svg>
